# xmcd
#
# Track frame offsets: 
#        150
#        45964
#        98716
#        125919
#        174389
#
# Disc length: 2776 seconds
#
# Revision: 0
# Processed by: cddbd v1.5.2PL0 Copyright (c) Steve Scherf et al.
# Submitted via: ExactAudioCopy v0.99pb4
#
DISCID=380ad605
DTITLE=Jeff Healley Band - Live In Paradiso CD 2
DYEAR=1988
DGENRE=Blues
TTITLE0=Roadhouse Blues
TTITLE1=Foxy Lady
TTITLE2=Goodmorning Mr Blues
TTITLE3=See The Light
TTITLE4=Can't Find My Way Home
EXTD=
EXTT0=
EXTT1=
EXTT2=
EXTT3=
EXTT4=
PLAYORDER=
